<svg width="281" height="228" viewBox="0 0 281 228" fill="none" xmlns="http://www.w3.org/2000/svg">
<path d="M106.245 109.006C101.16 97.5642 96.3641 86.58 92.6892 74.5057C91.1102 69.3174 89.348 63.4732 89.2448 58.0057C89.1288 51.8594 87.1106 45.1095 88.467 39.0057C90.6421 29.2179 92.3745 22.6723 99.1892 15.0057C102.323 11.4799 105.93 7.30631 110.467 5.45011C119.013 1.95399 131.11 2.13616 140.245 2.00566C151.397 1.84635 163.531 5.04541 172.3 12.0612C182.263 20.0313 185.861 29.1802 190.245 40.7834C195.759 55.3802 189.245 70.8668 189.245 85.5057C189.245 91.2634 190.802 94.9413 193.467 100.006C196.189 105.178 202.868 105.797 207.745 108.506C215.035 112.556 222.949 114.944 230.245 118.783C231.654 119.525 232.299 121.088 233.689 122.006C238.172 124.966 243.428 127.248 248.134 129.895C252.268 132.22 254.432 134.75 257.8 137.506C268.357 146.143 274.524 158.734 278.189 171.561C279.942 177.696 276.722 195.006 268.245 195.006" stroke="#560BAD" stroke-width="3" stroke-linecap="round"/>
<path d="M117.245 70.0057C125.707 78.4682 131.021 83.3998 143.634 79.5612C151.219 77.2526 148.245 70.744 148.245 64.0057" stroke="#560BAD" stroke-width="3" stroke-linecap="round"/>
<path d="M185.245 118.006C189.71 118.502 192.476 122.615 196.634 123.895C199.563 124.796 203.573 125.04 206.245 126.228C209.476 127.664 213.428 126.951 216.856 128.006C219.389 128.785 224.629 129.13 226.467 130.783C230.587 134.491 235.122 135.894 239.023 140.228C240.979 142.402 242.098 145.926 243.245 148.506C244.213 150.684 245.045 155.646 246.745 157.006C247.972 157.988 248.082 164.125 249.023 166.006C250.395 168.75 252.245 172.433 252.245 175.506C252.245 178.791 255.245 181.875 255.245 185.006C255.245 189.187 254.192 190.153 252.245 193.561C249.051 199.15 249.245 204.977 249.245 211.506C249.245 214.733 251.013 217.774 253.245 220.006C255.138 221.899 260.068 226.74 256.245 221.006" stroke="#560BAD" stroke-width="3" stroke-linecap="round"/>
<path d="M132.245 127.006C128.254 131.495 122.49 138.471 123.3 144.95C124.128 151.571 127.993 159.086 131.745 164.506C136.507 171.384 140.783 174.275 148.245 178.006C150.765 179.266 154.829 180.632 157.023 182.228C159.603 184.105 164.255 183.733 167.245 185.228C171.6 187.406 176.915 195.372 179.245 199.45C181.392 203.207 186.245 208.907 186.245 213.561C186.245 217.884 187.715 226.006 181.245 226.006C174.697 226.006 174.803 224.122 172.245 219.006" stroke="#560BAD" stroke-width="3" stroke-linecap="round"/>
<path d="M162.245 121.006C163.472 121.181 161.379 124.65 161.189 125.506C160.608 128.123 160.778 131.235 160.023 133.783C157.746 141.468 160.958 149.472 161.245 157.228C161.468 163.246 165.185 169.93 169.467 173.783C172.589 176.593 178.388 174.418 181.245 176.561C184.662 179.124 190.636 174.223 194.745 176.506C197.902 178.26 201.772 182.191 203.245 185.506C205.292 190.113 206.245 192.176 206.245 197.506C206.245 203.228 199.353 200.06 197.245 199.006" stroke="#560BAD" stroke-width="3" stroke-linecap="round"/>
<path d="M188.245 117.006C176.899 118.424 184.26 139.078 189.245 144.561C198.375 154.604 208.036 163.625 218.745 172.006C225.779 177.51 222.831 182.426 226.023 190.006C227.658 193.889 226.477 201.826 226.245 206.006C226.078 209.01 223.245 211.216 223.245 214.45C223.245 216.156 220.723 219.445 219.245 220.228C215.595 222.16 209.245 221.525 209.245 216.006" stroke="#560BAD" stroke-width="3" stroke-linecap="round"/>
<path d="M106.245 43.0057C106.586 39.9364 109.57 35.0057 112.745 35.0057C116.593 35.0057 116.637 39.7016 119.245 41.0057" stroke="#560BAD" stroke-width="3" stroke-linecap="round"/>
<path d="M141.245 43.0057C141.586 39.9364 144.57 35.0057 147.745 35.0057C151.593 35.0057 151.637 39.7016 154.245 41.0057" stroke="#560BAD" stroke-width="3" stroke-linecap="round"/>
<path d="M124 136C121.356 140.7 114.22 146.585 108.389 143.444C102.564 140.308 96.8573 138.857 92 134C89.3419 131.342 87.6154 128.06 85 125.444C78.578 119.022 73.2605 111.329 63.9444 109C56.2659 107.08 41.0194 107.961 37 116" stroke="#560BAD" stroke-width="3" stroke-linecap="round"/>
<rect x="1.95679" y="86.2604" width="72" height="46" rx="2.5" transform="rotate(-22.2851 1.95679 86.2604)" fill="white" stroke="#560BAD" stroke-width="3"/>
<rect x="50.9568" y="74.1018" width="16.2046" height="13.7497" rx="2.5" transform="rotate(-22.2851 50.9568 74.1018)" fill="white" stroke="#560BAD" stroke-width="3"/>
</svg>
